{
	"asset":{
		"generator":"Khronos glTF Blender I/O v4.2.57",
		"version":"2.0"
	},
	"extensionsUsed":[
		"KHR_materials_specular"
	],
	"scene":0,
	"scenes":[
		{
			"name":"Scene",
			"nodes":[
				0
			]
		}
	],
	"nodes":[
		{
			"mesh":0,
			"name":"bunny",
			"rotation":[
				0.7071068286895752,
				0,
				0,
				0.7071068286895752
			],
			"translation":[
				-4.15779972076416,
				-10.573128700256348,
				383.5628356933594
			]
		}
	],
	"materials":[
		{
			"alphaMode":"BLEND",
			"doubleSided":true,
			"extensions":{
				"KHR_materials_specular":{
					"specularFactor":0.125490203499794
				}
			},
			"name":"Handle1Mtl",
			"pbrMetallicRoughness":{
				"baseColorTexture":{
					"index":0
				},
				"metallicFactor":0
			}
		},
		{
			"alphaMode":"BLEND",
			"doubleSided":true,
			"extensions":{
				"KHR_materials_specular":{
					"specularFactor":0.125490203499794
				}
			},
			"name":"1Mtl",
			"pbrMetallicRoughness":{
				"baseColorTexture":{
					"index":1
				},
				"metallicFactor":0
			}
		},
		{
			"alphaMode":"BLEND",
			"doubleSided":true,
			"extensions":{
				"KHR_materials_specular":{
					"specularFactor":0.125490203499794
				}
			},
			"name":"Hat1Mtl",
			"pbrMetallicRoughness":{
				"baseColorTexture":{
					"index":2
				},
				"metallicFactor":0
			}
		}
	],
	"meshes":[
		{
			"name":"bunny",
			"primitives":[
				{
					"attributes":{
						"POSITION":0,
						"NORMAL":1,
						"TEXCOORD_0":2
					},
					"indices":3,
					"material":0
				},
				{
					"attributes":{
						"POSITION":4,
						"NORMAL":5,
						"TEXCOORD_0":6
					},
					"indices":7,
					"material":1
				},
				{
					"attributes":{
						"POSITION":8,
						"NORMAL":9,
						"TEXCOORD_0":10
					},
					"indices":11,
					"material":2
				}
			]
		}
	],
	"textures":[
		{
			"sampler":0,
			"source":0
		},
		{
			"sampler":0,
			"source":1
		},
		{
			"sampler":0,
			"source":2
		}
	],
	"images":[
		{
			"mimeType":"image/png",
			"name":"Handle1_diff",
			"uri":"Handle1_diff.png"
		},
		{
			"mimeType":"image/png",
			"name":"1_diff",
			"uri":"1_diff.png"
		},
		{
			"mimeType":"image/png",
			"name":"Hat1_diff",
			"uri":"Hat1_diff.png"
		}
	],
	"accessors":[
		{
			"bufferView":0,
			"componentType":5126,
			"count":3266,
			"max":[
				20.701000213623047,
				-368.0889892578125,
				-9.980500221252441
			],
			"min":[
				-12.020899772644043,
				-400.8110046386719,
				-54.979801177978516
			],
			"type":"VEC3"
		},
		{
			"bufferView":1,
			"componentType":5126,
			"count":3266,
			"type":"VEC3"
		},
		{
			"bufferView":2,
			"componentType":5126,
			"count":3266,
			"type":"VEC2"
		},
		{
			"bufferView":3,
			"componentType":5123,
			"count":6504,
			"type":"SCALAR"
		},
		{
			"bufferView":4,
			"componentType":5126,
			"count":3877,
			"max":[
				5.609960079193115,
				-382.4949951171875,
				-11.048500061035156
			],
			"min":[
				3.0111401081085205,
				-386.3450012207031,
				-15.11359977722168
			],
			"type":"VEC3"
		},
		{
			"bufferView":5,
			"componentType":5126,
			"count":3877,
			"type":"VEC3"
		},
		{
			"bufferView":6,
			"componentType":5126,
			"count":3877,
			"type":"VEC2"
		},
		{
			"bufferView":7,
			"componentType":5123,
			"count":7944,
			"type":"SCALAR"
		},
		{
			"bufferView":8,
			"componentType":5126,
			"count":1247,
			"max":[
				5.529950141906738,
				-383.3689880371094,
				-14.964799880981445
			],
			"min":[
				3.750070095062256,
				-385.47100830078125,
				-17.61389923095703
			],
			"type":"VEC3"
		},
		{
			"bufferView":9,
			"componentType":5126,
			"count":1247,
			"type":"VEC3"
		},
		{
			"bufferView":10,
			"componentType":5126,
			"count":1247,
			"type":"VEC2"
		},
		{
			"bufferView":11,
			"componentType":5123,
			"count":2586,
			"type":"SCALAR"
		}
	],
	"bufferViews":[
		{
			"buffer":0,
			"byteLength":39192,
			"byteOffset":0,
			"target":34962
		},
		{
			"buffer":0,
			"byteLength":39192,
			"byteOffset":39192,
			"target":34962
		},
		{
			"buffer":0,
			"byteLength":26128,
			"byteOffset":78384,
			"target":34962
		},
		{
			"buffer":0,
			"byteLength":13008,
			"byteOffset":104512,
			"target":34963
		},
		{
			"buffer":0,
			"byteLength":46524,
			"byteOffset":117520,
			"target":34962
		},
		{
			"buffer":0,
			"byteLength":46524,
			"byteOffset":164044,
			"target":34962
		},
		{
			"buffer":0,
			"byteLength":31016,
			"byteOffset":210568,
			"target":34962
		},
		{
			"buffer":0,
			"byteLength":15888,
			"byteOffset":241584,
			"target":34963
		},
		{
			"buffer":0,
			"byteLength":14964,
			"byteOffset":257472,
			"target":34962
		},
		{
			"buffer":0,
			"byteLength":14964,
			"byteOffset":272436,
			"target":34962
		},
		{
			"buffer":0,
			"byteLength":9976,
			"byteOffset":287400,
			"target":34962
		},
		{
			"buffer":0,
			"byteLength":5172,
			"byteOffset":297376,
			"target":34963
		}
	],
	"samplers":[
		{
			"magFilter":9729,
			"minFilter":9987
		}
	],
	"buffers":[
		{
			"byteLength":302548,
			"uri":"bunny.bin"
		}
	]
}
