{
	"asset":{
		"generator":"Khronos glTF Blender I/O v4.2.57",
		"version":"2.0"
	},
	"extensionsUsed":[
		"KHR_materials_specular"
	],
	"scene":0,
	"scenes":[
		{
			"name":"Scene",
			"nodes":[
				0
			]
		}
	],
	"nodes":[
		{
			"mesh":0,
			"name":"house",
			"rotation":[
				0.7071068286895752,
				0,
				0,
				0.7071068286895752
			]
		}
	],
	"materials":[
		{
			"alphaMode":"OPAQUE",
			"doubleSided":true,
			"extensions":{
				"KHR_materials_specular":{
					"specularFactor":0.0028621398378163576
				}
			},
			"name":"WoodenBarrel1Mtl",
			"normalTexture":{
				"index":0,
				"scale":0
			},
			"pbrMetallicRoughness":{
				"baseColorTexture":{
					"index":1
				},
				"metallicFactor":0,
				"metallicRoughnessTexture":{
					"index":2
				}
			}
		},
		{
			"alphaMode":"OPAQUE",
			"doubleSided":true,
			"extensions":{
				"KHR_materials_specular":{
					"specularFactor":0.21516053378582
				}
			},
			"name":"Union1Mtl",
			"normalTexture":{
				"index":3,
				"scale":0
			},
			"pbrMetallicRoughness":{
				"baseColorTexture":{
					"index":4
				},
				"metallicFactor":0,
				"metallicRoughnessTexture":{
					"index":5
				}
			}
		},
		{
			"alphaMode":"OPAQUE",
			"doubleSided":true,
			"extensions":{
				"KHR_materials_specular":{
					"specularFactor":0.0010544733377173543
				}
			},
			"name":"Part1Mtl",
			"normalTexture":{
				"index":6,
				"scale":0
			},
			"pbrMetallicRoughness":{
				"baseColorTexture":{
					"index":7
				},
				"metallicFactor":0,
				"metallicRoughnessTexture":{
					"index":8
				}
			}
		},
		{
			"alphaMode":"OPAQUE",
			"doubleSided":true,
			"extensions":{
				"KHR_materials_specular":{
					"specularFactor":0.027338340878486633
				}
			},
			"name":"Part3Mtl",
			"normalTexture":{
				"index":9,
				"scale":0
			},
			"pbrMetallicRoughness":{
				"baseColorTexture":{
					"index":10
				},
				"metallicFactor":0,
				"metallicRoughnessTexture":{
					"index":11
				}
			}
		},
		{
			"alphaMode":"OPAQUE",
			"doubleSided":true,
			"extensions":{
				"KHR_materials_specular":{
					"specularFactor":0.15747800469398499
				}
			},
			"name":"Part7Mtl",
			"normalTexture":{
				"index":12,
				"scale":0
			},
			"pbrMetallicRoughness":{
				"baseColorTexture":{
					"index":13
				},
				"metallicFactor":0,
				"metallicRoughnessTexture":{
					"index":14
				}
			}
		},
		{
			"alphaMode":"OPAQUE",
			"doubleSided":true,
			"extensions":{
				"KHR_materials_specular":{
					"specularColorFactor":[
						1.2541340589523315,
						1.2541340589523315,
						1.2541340589523315
					]
				}
			},
			"name":"Part12Mtl",
			"normalTexture":{
				"index":15,
				"scale":0
			},
			"pbrMetallicRoughness":{
				"baseColorTexture":{
					"index":16
				},
				"metallicFactor":0,
				"metallicRoughnessTexture":{
					"index":17
				}
			}
		},
		{
			"alphaMode":"OPAQUE",
			"doubleSided":true,
			"extensions":{
				"KHR_materials_specular":{
					"specularFactor":0.018942607566714287
				}
			},
			"name":"Part26Mtl",
			"normalTexture":{
				"index":18,
				"scale":0
			},
			"pbrMetallicRoughness":{
				"baseColorTexture":{
					"index":19
				},
				"metallicFactor":0,
				"metallicRoughnessTexture":{
					"index":20
				}
			}
		},
		{
			"alphaMode":"OPAQUE",
			"doubleSided":true,
			"extensions":{
				"KHR_materials_specular":{
					"specularFactor":0.05129392817616463
				}
			},
			"name":"Part28Mtl",
			"normalTexture":{
				"index":21,
				"scale":0
			},
			"pbrMetallicRoughness":{
				"baseColorTexture":{
					"index":22
				},
				"metallicFactor":0,
				"metallicRoughnessTexture":{
					"index":23
				}
			}
		},
		{
			"alphaMode":"OPAQUE",
			"doubleSided":true,
			"extensions":{
				"KHR_materials_specular":{
					"specularFactor":0.013957726769149303
				}
			},
			"name":"Part54Mtl",
			"normalTexture":{
				"index":24,
				"scale":0
			},
			"pbrMetallicRoughness":{
				"baseColorTexture":{
					"index":25
				},
				"metallicFactor":0,
				"metallicRoughnessTexture":{
					"index":26
				}
			}
		}
	],
	"meshes":[
		{
			"name":"house",
			"primitives":[
				{
					"attributes":{
						"POSITION":0,
						"NORMAL":1,
						"TEXCOORD_0":2
					},
					"indices":3,
					"material":0
				},
				{
					"attributes":{
						"POSITION":4,
						"NORMAL":5,
						"TEXCOORD_0":6
					},
					"indices":7,
					"material":1
				},
				{
					"attributes":{
						"POSITION":8,
						"NORMAL":9,
						"TEXCOORD_0":10
					},
					"indices":11,
					"material":2
				},
				{
					"attributes":{
						"POSITION":12,
						"NORMAL":13,
						"TEXCOORD_0":14
					},
					"indices":15,
					"material":3
				},
				{
					"attributes":{
						"POSITION":16,
						"NORMAL":17,
						"TEXCOORD_0":18
					},
					"indices":19,
					"material":4
				},
				{
					"attributes":{
						"POSITION":20,
						"NORMAL":21,
						"TEXCOORD_0":22
					},
					"indices":23,
					"material":5
				},
				{
					"attributes":{
						"POSITION":24,
						"NORMAL":25,
						"TEXCOORD_0":26
					},
					"indices":27,
					"material":6
				},
				{
					"attributes":{
						"POSITION":28,
						"NORMAL":29,
						"TEXCOORD_0":30
					},
					"indices":31,
					"material":7
				},
				{
					"attributes":{
						"POSITION":32,
						"NORMAL":33,
						"TEXCOORD_0":34
					},
					"indices":35,
					"material":8
				}
			]
		}
	],
	"textures":[
		{
			"sampler":0,
			"source":0
		},
		{
			"sampler":0,
			"source":1
		},
		{
			"sampler":0,
			"source":2
		},
		{
			"sampler":0,
			"source":3
		},
		{
			"sampler":0,
			"source":4
		},
		{
			"sampler":0,
			"source":5
		},
		{
			"sampler":0,
			"source":6
		},
		{
			"sampler":0,
			"source":7
		},
		{
			"sampler":0,
			"source":8
		},
		{
			"sampler":0,
			"source":6
		},
		{
			"sampler":0,
			"source":7
		},
		{
			"sampler":0,
			"source":8
		},
		{
			"sampler":0,
			"source":9
		},
		{
			"sampler":0,
			"source":10
		},
		{
			"sampler":0,
			"source":11
		},
		{
			"sampler":0,
			"source":9
		},
		{
			"sampler":0,
			"source":10
		},
		{
			"sampler":0,
			"source":11
		},
		{
			"sampler":0,
			"source":0
		},
		{
			"sampler":0,
			"source":1
		},
		{
			"sampler":0,
			"source":2
		},
		{
			"sampler":0,
			"source":12
		},
		{
			"sampler":0,
			"source":13
		},
		{
			"sampler":0,
			"source":14
		},
		{
			"sampler":0,
			"source":15
		},
		{
			"sampler":0,
			"source":16
		},
		{
			"sampler":0,
			"source":17
		}
	],
	"images":[
		{
			"mimeType":"image/png",
			"name":"WoodenBarrel1_nmap",
			"uri":"WoodenBarrel1_nmap.png"
		},
		{
			"mimeType":"image/png",
			"name":"WoodenBarrel1_diff",
			"uri":"WoodenBarrel1_diff.png"
		},
		{
			"mimeType":"image/png",
			"name":"WoodenBarrel1_spec",
			"uri":"WoodenBarrel1_spec.png"
		},
		{
			"mimeType":"image/png",
			"name":"Union1_nmap",
			"uri":"Union1_nmap.png"
		},
		{
			"mimeType":"image/png",
			"name":"Union1_diff",
			"uri":"Union1_diff.png"
		},
		{
			"mimeType":"image/png",
			"name":"Union1_spec",
			"uri":"Union1_spec.png"
		},
		{
			"mimeType":"image/png",
			"name":"Part1_nmap",
			"uri":"Part1_nmap.png"
		},
		{
			"mimeType":"image/png",
			"name":"Part1_diff",
			"uri":"Part1_diff.png"
		},
		{
			"mimeType":"image/png",
			"name":"Part1_spec",
			"uri":"Part1_spec.png"
		},
		{
			"mimeType":"image/png",
			"name":"Part7_nmap",
			"uri":"Part7_nmap.png"
		},
		{
			"mimeType":"image/png",
			"name":"Part7_diff",
			"uri":"Part7_diff.png"
		},
		{
			"mimeType":"image/png",
			"name":"Part7_spec",
			"uri":"Part7_spec.png"
		},
		{
			"mimeType":"image/png",
			"name":"Part28_nmap",
			"uri":"Part28_nmap.png"
		},
		{
			"mimeType":"image/png",
			"name":"Part28_diff",
			"uri":"Part28_diff.png"
		},
		{
			"mimeType":"image/png",
			"name":"Part28_spec",
			"uri":"Part28_spec.png"
		},
		{
			"mimeType":"image/png",
			"name":"Part54_nmap",
			"uri":"Part54_nmap.png"
		},
		{
			"mimeType":"image/png",
			"name":"Part54_diff",
			"uri":"Part54_diff.png"
		},
		{
			"mimeType":"image/png",
			"name":"Part54_spec",
			"uri":"Part54_spec.png"
		}
	],
	"accessors":[
		{
			"bufferView":0,
			"componentType":5126,
			"count":8794,
			"max":[
				1.548509955406189,
				-10.648900032043457,
				-0.040030598640441895
			],
			"min":[
				-1.5378799438476562,
				-17.034900665283203,
				-3.4579999446868896
			],
			"type":"VEC3"
		},
		{
			"bufferView":1,
			"componentType":5126,
			"count":8794,
			"type":"VEC3"
		},
		{
			"bufferView":2,
			"componentType":5126,
			"count":8794,
			"type":"VEC2"
		},
		{
			"bufferView":3,
			"componentType":5123,
			"count":14664,
			"type":"SCALAR"
		},
		{
			"bufferView":4,
			"componentType":5126,
			"count":1015,
			"max":[
				1.5044100284576416,
				-13.981599807739258,
				-0.1001570001244545
			],
			"min":[
				-1.4824700355529785,
				-16.968399047851562,
				-3.3666999340057373
			],
			"type":"VEC3"
		},
		{
			"bufferView":5,
			"componentType":5126,
			"count":1015,
			"type":"VEC3"
		},
		{
			"bufferView":6,
			"componentType":5126,
			"count":1015,
			"type":"VEC2"
		},
		{
			"bufferView":7,
			"componentType":5123,
			"count":1860,
			"type":"SCALAR"
		},
		{
			"bufferView":8,
			"componentType":5126,
			"count":168,
			"max":[
				0.58542400598526,
				-16.040199279785156,
				-1.9013899873243645e-05
			],
			"min":[
				-3.966020107269287,
				-27.441600799560547,
				-1.8000199794769287
			],
			"type":"VEC3"
		},
		{
			"bufferView":9,
			"componentType":5126,
			"count":168,
			"type":"VEC3"
		},
		{
			"bufferView":10,
			"componentType":5126,
			"count":168,
			"type":"VEC2"
		},
		{
			"bufferView":11,
			"componentType":5123,
			"count":216,
			"type":"SCALAR"
		},
		{
			"bufferView":12,
			"componentType":5126,
			"count":134,
			"max":[
				21.836999893188477,
				-10.37720012664795,
				-3.1113599106902257e-05
			],
			"min":[
				-4.038879871368408,
				-41.377201080322266,
				-16.14900016784668
			],
			"type":"VEC3"
		},
		{
			"bufferView":13,
			"componentType":5126,
			"count":134,
			"type":"VEC3"
		},
		{
			"bufferView":14,
			"componentType":5126,
			"count":134,
			"type":"VEC2"
		},
		{
			"bufferView":15,
			"componentType":5123,
			"count":180,
			"type":"SCALAR"
		},
		{
			"bufferView":16,
			"componentType":5126,
			"count":1152,
			"max":[
				15.82129955291748,
				-11.67710018157959,
				-2.8998799324035645
			],
			"min":[
				2.170419931411743,
				-40.07789993286133,
				-7.099909782409668
			],
			"type":"VEC3"
		},
		{
			"bufferView":17,
			"componentType":5126,
			"count":1152,
			"type":"VEC3"
		},
		{
			"bufferView":18,
			"componentType":5126,
			"count":1152,
			"type":"VEC2"
		},
		{
			"bufferView":19,
			"componentType":5123,
			"count":1728,
			"type":"SCALAR"
		},
		{
			"bufferView":20,
			"componentType":5126,
			"count":144,
			"max":[
				15.671199798583984,
				-11.777199745178223,
				-3.099980115890503
			],
			"min":[
				2.270430088043213,
				-39.97779846191406,
				-6.9999799728393555
			],
			"type":"VEC3"
		},
		{
			"bufferView":21,
			"componentType":5126,
			"count":144,
			"type":"VEC3"
		},
		{
			"bufferView":22,
			"componentType":5126,
			"count":144,
			"type":"VEC2"
		},
		{
			"bufferView":23,
			"componentType":5123,
			"count":216,
			"type":"SCALAR"
		},
		{
			"bufferView":24,
			"componentType":5126,
			"count":642,
			"max":[
				20.370500564575195,
				-11.377400398254395,
				-2.4999001026153564
			],
			"min":[
				1.9701600074768066,
				-40.37739944458008,
				-14.949999809265137
			],
			"type":"VEC3"
		},
		{
			"bufferView":25,
			"componentType":5126,
			"count":642,
			"type":"VEC3"
		},
		{
			"bufferView":26,
			"componentType":5126,
			"count":642,
			"type":"VEC2"
		},
		{
			"bufferView":27,
			"componentType":5123,
			"count":960,
			"type":"SCALAR"
		},
		{
			"bufferView":28,
			"componentType":5126,
			"count":336,
			"max":[
				20.47010040283203,
				-11.326499938964844,
				-5.0067901611328125e-06
			],
			"min":[
				1.8704299926757812,
				-40.32749938964844,
				-6.200119972229004
			],
			"type":"VEC3"
		},
		{
			"bufferView":29,
			"componentType":5126,
			"count":336,
			"type":"VEC3"
		},
		{
			"bufferView":30,
			"componentType":5126,
			"count":336,
			"type":"VEC2"
		},
		{
			"bufferView":31,
			"componentType":5123,
			"count":504,
			"type":"SCALAR"
		},
		{
			"bufferView":32,
			"componentType":5126,
			"count":24,
			"max":[
				2.9704298973083496,
				-30.62779998779297,
				-4.816060027224012e-05
			],
			"min":[
				2.570430040359497,
				-34.12779998779297,
				-5.200049877166748
			],
			"type":"VEC3"
		},
		{
			"bufferView":33,
			"componentType":5126,
			"count":24,
			"type":"VEC3"
		},
		{
			"bufferView":34,
			"componentType":5126,
			"count":24,
			"type":"VEC2"
		},
		{
			"bufferView":35,
			"componentType":5123,
			"count":36,
			"type":"SCALAR"
		}
	],
	"bufferViews":[
		{
			"buffer":0,
			"byteLength":105528,
			"byteOffset":0,
			"target":34962
		},
		{
			"buffer":0,
			"byteLength":105528,
			"byteOffset":105528,
			"target":34962
		},
		{
			"buffer":0,
			"byteLength":70352,
			"byteOffset":211056,
			"target":34962
		},
		{
			"buffer":0,
			"byteLength":29328,
			"byteOffset":281408,
			"target":34963
		},
		{
			"buffer":0,
			"byteLength":12180,
			"byteOffset":310736,
			"target":34962
		},
		{
			"buffer":0,
			"byteLength":12180,
			"byteOffset":322916,
			"target":34962
		},
		{
			"buffer":0,
			"byteLength":8120,
			"byteOffset":335096,
			"target":34962
		},
		{
			"buffer":0,
			"byteLength":3720,
			"byteOffset":343216,
			"target":34963
		},
		{
			"buffer":0,
			"byteLength":2016,
			"byteOffset":346936,
			"target":34962
		},
		{
			"buffer":0,
			"byteLength":2016,
			"byteOffset":348952,
			"target":34962
		},
		{
			"buffer":0,
			"byteLength":1344,
			"byteOffset":350968,
			"target":34962
		},
		{
			"buffer":0,
			"byteLength":432,
			"byteOffset":352312,
			"target":34963
		},
		{
			"buffer":0,
			"byteLength":1608,
			"byteOffset":352744,
			"target":34962
		},
		{
			"buffer":0,
			"byteLength":1608,
			"byteOffset":354352,
			"target":34962
		},
		{
			"buffer":0,
			"byteLength":1072,
			"byteOffset":355960,
			"target":34962
		},
		{
			"buffer":0,
			"byteLength":360,
			"byteOffset":357032,
			"target":34963
		},
		{
			"buffer":0,
			"byteLength":13824,
			"byteOffset":357392,
			"target":34962
		},
		{
			"buffer":0,
			"byteLength":13824,
			"byteOffset":371216,
			"target":34962
		},
		{
			"buffer":0,
			"byteLength":9216,
			"byteOffset":385040,
			"target":34962
		},
		{
			"buffer":0,
			"byteLength":3456,
			"byteOffset":394256,
			"target":34963
		},
		{
			"buffer":0,
			"byteLength":1728,
			"byteOffset":397712,
			"target":34962
		},
		{
			"buffer":0,
			"byteLength":1728,
			"byteOffset":399440,
			"target":34962
		},
		{
			"buffer":0,
			"byteLength":1152,
			"byteOffset":401168,
			"target":34962
		},
		{
			"buffer":0,
			"byteLength":432,
			"byteOffset":402320,
			"target":34963
		},
		{
			"buffer":0,
			"byteLength":7704,
			"byteOffset":402752,
			"target":34962
		},
		{
			"buffer":0,
			"byteLength":7704,
			"byteOffset":410456,
			"target":34962
		},
		{
			"buffer":0,
			"byteLength":5136,
			"byteOffset":418160,
			"target":34962
		},
		{
			"buffer":0,
			"byteLength":1920,
			"byteOffset":423296,
			"target":34963
		},
		{
			"buffer":0,
			"byteLength":4032,
			"byteOffset":425216,
			"target":34962
		},
		{
			"buffer":0,
			"byteLength":4032,
			"byteOffset":429248,
			"target":34962
		},
		{
			"buffer":0,
			"byteLength":2688,
			"byteOffset":433280,
			"target":34962
		},
		{
			"buffer":0,
			"byteLength":1008,
			"byteOffset":435968,
			"target":34963
		},
		{
			"buffer":0,
			"byteLength":288,
			"byteOffset":436976,
			"target":34962
		},
		{
			"buffer":0,
			"byteLength":288,
			"byteOffset":437264,
			"target":34962
		},
		{
			"buffer":0,
			"byteLength":192,
			"byteOffset":437552,
			"target":34962
		},
		{
			"buffer":0,
			"byteLength":72,
			"byteOffset":437744,
			"target":34963
		}
	],
	"samplers":[
		{
			"magFilter":9729,
			"minFilter":9987
		}
	],
	"buffers":[
		{
			"byteLength":437816,
			"uri":"easterbunnyshouse.bin"
		}
	]
}
